<svg xmlns="http://www.w3.org/2000/svg" xmlns:xlink="http://www.w3.org/1999/xlink" width="500" zoomAndPan="magnify" viewBox="0 0 375 374.999991" height="500" preserveAspectRatio="xMidYMid meet" version="1.0"><defs><g/><clipPath id="09da519471"><path d="M 97 187.140625 L 278 187.140625 L 278 279.878906 L 97 279.878906 Z M 97 187.140625 " clip-rule="nonzero"/></clipPath><clipPath id="51ee878ee9"><path d="M 99.972656 187.5 L 275.027344 187.5 C 275.800781 187.5 276.546875 187.808594 277.09375 188.355469 C 277.644531 188.90625 277.949219 189.648438 277.949219 190.425781 L 277.949219 276.957031 C 277.949219 277.730469 277.644531 278.476562 277.09375 279.023438 C 276.546875 279.574219 275.800781 279.878906 275.027344 279.878906 L 99.972656 279.878906 C 99.199219 279.878906 98.453125 279.574219 97.90625 279.023438 C 97.355469 278.476562 97.046875 277.730469 97.046875 276.957031 L 97.046875 190.425781 C 97.046875 189.648438 97.355469 188.90625 97.90625 188.355469 C 98.453125 187.808594 99.199219 187.5 99.972656 187.5 Z M 99.972656 187.5 " clip-rule="nonzero"/></clipPath></defs><g clip-path="url(#09da519471)"><g clip-path="url(#51ee878ee9)"><path fill="#4e274e" d="M 97.046875 187.5 L 277.839844 187.5 L 277.839844 279.878906 L 97.046875 279.878906 Z M 97.046875 187.5 " fill-opacity="1" fill-rule="nonzero"/></g></g><g fill="#ffffff" fill-opacity="1"><g transform="translate(96.397945, 174.749989)"><g><path d="M 19.65625 -6.0625 L 20.828125 0.203125 C 19.523438 0.585938 18.023438 0.78125 16.328125 0.78125 C 13.648438 0.78125 11.4375 -0.289062 9.6875 -2.4375 C 8.445312 -3.9375 7.828125 -6.238281 7.828125 -9.34375 L 7.828125 -73.140625 L 15.15625 -73.140625 L 15.15625 -9.34375 C 15.15625 -7.875 15.332031 -6.910156 15.6875 -6.453125 C 16.050781 -5.992188 16.625 -5.765625 17.40625 -5.765625 C 18.125 -5.765625 18.875 -5.863281 19.65625 -6.0625 Z M 19.65625 -6.0625 "/></g></g></g><g fill="#ffffff" fill-opacity="1"><g transform="translate(118.856314, 174.749989)"><g><path d="M 8.4375 -68.859375 C 9.300781 -69.722656 10.398438 -70.15625 11.734375 -70.15625 C 13.066406 -70.15625 14.164062 -69.722656 15.03125 -68.859375 C 15.894531 -67.992188 16.328125 -66.894531 16.328125 -65.5625 C 16.328125 -64.226562 15.894531 -63.128906 15.03125 -62.265625 C 14.164062 -61.398438 13.066406 -60.96875 11.734375 -60.96875 C 10.398438 -60.96875 9.300781 -61.398438 8.4375 -62.265625 C 7.570312 -63.128906 7.140625 -64.226562 7.140625 -65.5625 C 7.140625 -66.894531 7.570312 -67.992188 8.4375 -68.859375 Z M 15.40625 0 L 8.0625 0 L 8.0625 -52.890625 L 15.40625 -52.890625 Z M 15.40625 0 "/></g></g></g><g fill="#ffffff" fill-opacity="1"><g transform="translate(141.021348, 174.749989)"><g><path d="M 29.09375 -53.6875 C 32.414062 -53.6875 35.425781 -52.96875 38.125 -51.53125 C 40.832031 -50.09375 42.953125 -48.203125 44.484375 -45.859375 C 46.117188 -43.347656 47.179688 -40.648438 47.671875 -37.765625 C 48.160156 -34.878906 48.40625 -31.101562 48.40625 -26.4375 C 48.40625 -21.78125 48.160156 -18.007812 47.671875 -15.125 C 47.179688 -12.238281 46.117188 -9.546875 44.484375 -7.046875 C 42.953125 -4.691406 40.832031 -2.796875 38.125 -1.359375 C 35.425781 0.0664062 32.414062 0.78125 29.09375 0.78125 C 23.644531 0.78125 19 -1.351562 15.15625 -5.625 L 15.15625 0 L 7.828125 0 L 7.828125 -73.140625 L 15.15625 -73.140625 L 15.15625 -47.28125 C 19 -51.550781 23.644531 -53.6875 29.09375 -53.6875 Z M 38.140625 -42.34375 C 35.816406 -45.53125 32.472656 -47.125 28.109375 -47.125 C 23.742188 -47.125 20.40625 -45.53125 18.09375 -42.34375 C 16.851562 -40.644531 16.050781 -38.585938 15.6875 -36.171875 C 15.332031 -33.765625 15.15625 -30.523438 15.15625 -26.453125 C 15.15625 -22.378906 15.332031 -19.132812 15.6875 -16.71875 C 16.050781 -14.3125 16.851562 -12.257812 18.09375 -10.5625 C 20.40625 -7.363281 23.742188 -5.765625 28.109375 -5.765625 C 32.472656 -5.765625 35.816406 -7.363281 38.140625 -10.5625 C 39.367188 -12.257812 40.160156 -14.3125 40.515625 -16.71875 C 40.878906 -19.132812 41.0625 -22.378906 41.0625 -26.453125 C 41.0625 -30.523438 40.878906 -33.765625 40.515625 -36.171875 C 40.160156 -38.585938 39.367188 -40.644531 38.140625 -42.34375 Z M 38.140625 -42.34375 "/></g></g></g><g fill="#ffffff" fill-opacity="1"><g transform="translate(194.230993, 174.749989)"><g><path d="M 15.15625 -47.328125 C 18.707031 -51.566406 22.863281 -53.6875 27.625 -53.6875 C 28.957031 -53.6875 30.457031 -53.503906 32.125 -53.140625 L 31.046875 -46.6875 C 28.992188 -46.976562 27.523438 -47.125 26.640625 -47.125 C 24.160156 -47.125 22.007812 -46.535156 20.1875 -45.359375 C 18.363281 -44.191406 17.046875 -42.613281 16.234375 -40.625 C 15.515625 -38.894531 15.15625 -35.832031 15.15625 -31.4375 L 15.15625 0 L 7.828125 0 L 7.828125 -52.890625 L 15.15625 -52.890625 Z M 15.15625 -47.328125 "/></g></g></g><g fill="#ffffff" fill-opacity="1"><g transform="translate(227.00497, 174.749989)"><g><path d="M 26.890625 0.78125 C 23.109375 0.78125 19.765625 0.0703125 16.859375 -1.34375 C 13.960938 -2.757812 11.664062 -4.707031 9.96875 -7.1875 C 8.769531 -8.914062 7.867188 -10.96875 7.265625 -13.34375 C 6.660156 -15.726562 6.316406 -17.742188 6.234375 -19.390625 C 6.148438 -21.035156 6.109375 -23.390625 6.109375 -26.453125 C 6.109375 -28.960938 6.132812 -30.859375 6.1875 -32.140625 C 6.238281 -33.429688 6.398438 -34.992188 6.671875 -36.828125 C 6.953125 -38.671875 7.367188 -40.34375 7.921875 -41.84375 C 9.285156 -45.4375 11.570312 -48.304688 14.78125 -50.453125 C 18 -52.609375 21.707031 -53.6875 25.90625 -53.6875 C 30.050781 -53.6875 33.742188 -52.597656 36.984375 -50.421875 C 40.222656 -48.253906 42.546875 -45.378906 43.953125 -41.796875 C 44.765625 -39.742188 45.257812 -37.695312 45.4375 -35.65625 C 45.625 -33.625 45.71875 -30.570312 45.71875 -26.5 L 45.71875 -24.890625 L 13.4375 -24.890625 C 13.4375 -22.765625 13.46875 -21.054688 13.53125 -19.765625 C 13.601562 -18.484375 13.859375 -16.9375 14.296875 -15.125 C 14.734375 -13.320312 15.378906 -11.816406 16.234375 -10.609375 C 18.484375 -7.378906 22.035156 -5.765625 26.890625 -5.765625 C 31.222656 -5.765625 35.882812 -6.957031 40.875 -9.34375 L 43.65625 -3.28125 C 37.882812 -0.570312 32.296875 0.78125 26.890625 0.78125 Z M 38.375 -30.953125 C 38.3125 -34.660156 37.835938 -37.609375 36.953125 -39.796875 C 36.078125 -42.046875 34.648438 -43.828125 32.671875 -45.140625 C 30.703125 -46.460938 28.445312 -47.125 25.90625 -47.125 C 23.269531 -47.125 20.988281 -46.460938 19.0625 -45.140625 C 17.144531 -43.828125 15.757812 -42.0625 14.90625 -39.84375 C 14.03125 -37.5625 13.5625 -34.597656 13.5 -30.953125 Z M 38.375 -30.953125 "/></g></g></g><g fill="#ffffff" fill-opacity="1"><g transform="translate(136.804192, 268.499982)"><g><path d="M 7.828125 -73.140625 L 15.15625 -73.140625 L 15.15625 -23.90625 L 36.625 -52.890625 L 45.21875 -52.890625 L 25.625 -26.75 L 45.71875 0 L 36.90625 0 L 21.015625 -21.65625 L 15.15625 -14.03125 L 15.15625 0 L 7.828125 0 Z M 7.828125 -73.140625 "/></g></g></g><g fill="#ffffff" fill-opacity="1"><g transform="translate(184.147141, 268.499982)"><g><path d="M 8.4375 -68.859375 C 9.300781 -69.722656 10.398438 -70.15625 11.734375 -70.15625 C 13.066406 -70.15625 14.164062 -69.722656 15.03125 -68.859375 C 15.894531 -67.992188 16.328125 -66.894531 16.328125 -65.5625 C 16.328125 -64.226562 15.894531 -63.128906 15.03125 -62.265625 C 14.164062 -61.398438 13.066406 -60.96875 11.734375 -60.96875 C 10.398438 -60.96875 9.300781 -61.398438 8.4375 -62.265625 C 7.570312 -63.128906 7.140625 -64.226562 7.140625 -65.5625 C 7.140625 -66.894531 7.570312 -67.992188 8.4375 -68.859375 Z M 15.40625 0 L 8.0625 0 L 8.0625 -52.890625 L 15.40625 -52.890625 Z M 15.40625 0 "/></g></g></g><g fill="#ffffff" fill-opacity="1"><g transform="translate(206.312174, 268.499982)"><g><path d="M 9.28125 -14.8125 L 9.28125 -46.828125 L 1.953125 -46.828125 L 1.953125 -52.890625 L 9.28125 -52.890625 L 9.28125 -64.34375 L 16.625 -64.34375 L 16.625 -52.890625 L 26.40625 -52.890625 L 26.40625 -46.828125 L 16.625 -46.828125 L 16.625 -14.8125 C 16.625 -11.289062 16.769531 -9.171875 17.0625 -8.453125 C 17.8125 -6.660156 19.210938 -5.765625 21.265625 -5.765625 C 22.960938 -5.765625 24.820312 -6.285156 26.84375 -7.328125 L 29.671875 -1.265625 C 26.546875 0.0976562 23.582031 0.78125 20.78125 0.78125 C 18.007812 0.78125 15.671875 0.113281 13.765625 -1.21875 C 11.859375 -2.5625 10.546875 -4.46875 9.828125 -6.9375 C 9.460938 -8.175781 9.28125 -10.800781 9.28125 -14.8125 Z M 9.28125 -14.8125 "/></g></g></g></svg>