<svg xmlns="http://www.w3.org/2000/svg" xmlns:xlink="http://www.w3.org/1999/xlink" width="500" zoomAndPan="magnify" viewBox="0 0 375 374.999991" height="500" preserveAspectRatio="xMidYMid meet" version="1.0"><defs><g/><clipPath id="545826a6c1"><path d="M 71.035156 187.039062 L 303.816406 187.039062 L 303.816406 305.976562 L 71.035156 305.976562 Z M 71.035156 187.039062 " clip-rule="nonzero"/></clipPath><clipPath id="b7f37c09c5"><path d="M 75.246094 187.5 L 299.753906 187.5 C 300.75 187.5 301.703125 187.894531 302.40625 188.597656 C 303.109375 189.300781 303.503906 190.253906 303.503906 191.25 L 303.503906 302.226562 C 303.503906 303.21875 303.109375 304.171875 302.40625 304.875 C 301.703125 305.578125 300.75 305.976562 299.753906 305.976562 L 75.246094 305.976562 C 74.25 305.976562 73.296875 305.578125 72.59375 304.875 C 71.890625 304.171875 71.496094 303.21875 71.496094 302.226562 L 71.496094 191.25 C 71.496094 190.253906 71.890625 189.300781 72.59375 188.597656 C 73.296875 187.894531 74.25 187.5 75.246094 187.5 Z M 75.246094 187.5 " clip-rule="nonzero"/></clipPath></defs><g clip-path="url(#545826a6c1)"><g clip-path="url(#b7f37c09c5)"><path fill="#4e274e" d="M 71.496094 187.5 L 303.355469 187.5 L 303.355469 305.976562 L 71.496094 305.976562 Z M 71.496094 187.5 " fill-opacity="1" fill-rule="nonzero"/></g></g><g fill="#000000" fill-opacity="1"><g transform="translate(70.667213, 170.999989)"><g><path d="M 25.203125 -7.78125 L 26.71875 0.25 C 25.039062 0.75 23.113281 1 20.9375 1 C 17.507812 1 14.671875 -0.378906 12.421875 -3.140625 C 10.828125 -5.054688 10.03125 -8.003906 10.03125 -11.984375 L 10.03125 -93.8125 L 19.4375 -93.8125 L 19.4375 -11.984375 C 19.4375 -10.097656 19.664062 -8.863281 20.125 -8.28125 C 20.582031 -7.695312 21.316406 -7.40625 22.328125 -7.40625 C 23.242188 -7.40625 24.203125 -7.53125 25.203125 -7.78125 Z M 25.203125 -7.78125 "/></g></g></g><g fill="#000000" fill-opacity="1"><g transform="translate(99.470997, 170.999989)"><g><path d="M 10.8125 -88.3125 C 11.925781 -89.425781 13.335938 -89.984375 15.046875 -89.984375 C 16.765625 -89.984375 18.175781 -89.425781 19.28125 -88.3125 C 20.382812 -87.207031 20.9375 -85.796875 20.9375 -84.078125 C 20.9375 -82.367188 20.382812 -80.957031 19.28125 -79.84375 C 18.175781 -78.738281 16.765625 -78.1875 15.046875 -78.1875 C 13.335938 -78.1875 11.925781 -78.738281 10.8125 -79.84375 C 9.707031 -80.957031 9.15625 -82.367188 9.15625 -84.078125 C 9.15625 -85.796875 9.707031 -87.207031 10.8125 -88.3125 Z M 19.75 0 L 10.34375 0 L 10.34375 -67.84375 L 19.75 -67.84375 Z M 19.75 0 "/></g></g></g><g fill="#000000" fill-opacity="1"><g transform="translate(127.898568, 170.999989)"><g><path d="M 37.3125 -68.84375 C 41.570312 -68.84375 45.4375 -67.921875 48.90625 -66.078125 C 52.375 -64.242188 55.09375 -61.820312 57.0625 -58.8125 C 59.15625 -55.59375 60.515625 -52.132812 61.140625 -48.4375 C 61.765625 -44.738281 62.078125 -39.898438 62.078125 -33.921875 C 62.078125 -27.941406 61.765625 -23.101562 61.140625 -19.40625 C 60.515625 -15.707031 59.15625 -12.25 57.0625 -9.03125 C 55.09375 -6.019531 52.375 -3.59375 48.90625 -1.75 C 45.4375 0.0820312 41.570312 1 37.3125 1 C 30.332031 1 24.375 -1.738281 19.4375 -7.21875 L 19.4375 0 L 10.03125 0 L 10.03125 -93.8125 L 19.4375 -93.8125 L 19.4375 -60.640625 C 24.375 -66.109375 30.332031 -68.84375 37.3125 -68.84375 Z M 48.90625 -54.296875 C 45.9375 -58.398438 41.648438 -60.453125 36.046875 -60.453125 C 30.453125 -60.453125 26.171875 -58.398438 23.203125 -54.296875 C 21.609375 -52.128906 20.582031 -49.5 20.125 -46.40625 C 19.664062 -43.3125 19.4375 -39.148438 19.4375 -33.921875 C 19.4375 -28.691406 19.664062 -24.53125 20.125 -21.4375 C 20.582031 -18.351562 21.609375 -15.722656 23.203125 -13.546875 C 26.171875 -9.453125 30.453125 -7.40625 36.046875 -7.40625 C 41.648438 -7.40625 45.9375 -9.453125 48.90625 -13.546875 C 50.5 -15.722656 51.523438 -18.351562 51.984375 -21.4375 C 52.441406 -24.53125 52.671875 -28.691406 52.671875 -33.921875 C 52.671875 -39.148438 52.441406 -43.3125 51.984375 -46.40625 C 51.523438 -49.5 50.5 -52.128906 48.90625 -54.296875 Z M 48.90625 -54.296875 "/></g></g></g><g fill="#000000" fill-opacity="1"><g transform="translate(196.142012, 170.999989)"><g><path d="M 19.4375 -60.703125 C 24 -66.128906 29.328125 -68.84375 35.421875 -68.84375 C 37.140625 -68.84375 39.066406 -68.613281 41.203125 -68.15625 L 39.8125 -59.890625 C 37.1875 -60.265625 35.304688 -60.453125 34.171875 -60.453125 C 30.992188 -60.453125 28.234375 -59.695312 25.890625 -58.1875 C 23.554688 -56.6875 21.863281 -54.660156 20.8125 -52.109375 C 19.894531 -49.890625 19.4375 -45.957031 19.4375 -40.3125 L 19.4375 0 L 10.03125 0 L 10.03125 -67.84375 L 19.4375 -67.84375 Z M 19.4375 -60.703125 "/></g></g></g><g fill="#000000" fill-opacity="1"><g transform="translate(238.175952, 170.999989)"><g><path d="M 34.484375 1 C 29.640625 1 25.351562 0.09375 21.625 -1.71875 C 17.90625 -3.539062 14.960938 -6.039062 12.796875 -9.21875 C 11.242188 -11.4375 10.082031 -14.070312 9.3125 -17.125 C 8.539062 -20.175781 8.101562 -22.753906 8 -24.859375 C 7.894531 -26.972656 7.84375 -29.992188 7.84375 -33.921875 C 7.84375 -37.140625 7.875 -39.570312 7.9375 -41.21875 C 8 -42.875 8.207031 -44.882812 8.5625 -47.25 C 8.914062 -49.613281 9.445312 -51.753906 10.15625 -53.671875 C 11.914062 -58.273438 14.851562 -61.953125 18.96875 -64.703125 C 23.082031 -67.460938 27.835938 -68.84375 33.234375 -68.84375 C 38.546875 -68.84375 43.28125 -67.453125 47.4375 -64.671875 C 51.59375 -61.898438 54.570312 -58.210938 56.375 -53.609375 C 57.414062 -50.972656 58.050781 -48.347656 58.28125 -45.734375 C 58.507812 -43.128906 58.625 -39.210938 58.625 -33.984375 L 58.625 -31.921875 L 17.25 -31.921875 C 17.25 -29.203125 17.289062 -27.015625 17.375 -25.359375 C 17.457031 -23.710938 17.78125 -21.726562 18.34375 -19.40625 C 18.90625 -17.082031 19.726562 -15.148438 20.8125 -13.609375 C 23.695312 -9.472656 28.253906 -7.40625 34.484375 -7.40625 C 40.046875 -7.40625 46.023438 -8.929688 52.421875 -11.984375 L 56 -4.203125 C 48.59375 -0.734375 41.421875 1 34.484375 1 Z M 49.21875 -39.6875 C 49.132812 -44.457031 48.53125 -48.242188 47.40625 -51.046875 C 46.28125 -53.929688 44.453125 -56.21875 41.921875 -57.90625 C 39.390625 -59.601562 36.492188 -60.453125 33.234375 -60.453125 C 29.847656 -60.453125 26.921875 -59.601562 24.453125 -57.90625 C 21.984375 -56.21875 20.207031 -53.953125 19.125 -51.109375 C 18 -48.179688 17.394531 -44.375 17.3125 -39.6875 Z M 49.21875 -39.6875 "/></g></g></g><g fill="#ffffff" fill-opacity="1"><g transform="translate(122.475803, 290.999981)"><g><path d="M 10.03125 -93.8125 L 19.4375 -93.8125 L 19.4375 -30.65625 L 46.96875 -67.84375 L 58 -67.84375 L 32.859375 -34.296875 L 58.625 0 L 47.34375 0 L 26.96875 -27.78125 L 19.4375 -18 L 19.4375 0 L 10.03125 0 Z M 10.03125 -93.8125 "/></g></g></g><g fill="#ffffff" fill-opacity="1"><g transform="translate(183.194991, 290.999981)"><g><path d="M 10.8125 -88.3125 C 11.925781 -89.425781 13.335938 -89.984375 15.046875 -89.984375 C 16.765625 -89.984375 18.175781 -89.425781 19.28125 -88.3125 C 20.382812 -87.207031 20.9375 -85.796875 20.9375 -84.078125 C 20.9375 -82.367188 20.382812 -80.957031 19.28125 -79.84375 C 18.175781 -78.738281 16.765625 -78.1875 15.046875 -78.1875 C 13.335938 -78.1875 11.925781 -78.738281 10.8125 -79.84375 C 9.707031 -80.957031 9.15625 -82.367188 9.15625 -84.078125 C 9.15625 -85.796875 9.707031 -87.207031 10.8125 -88.3125 Z M 19.75 0 L 10.34375 0 L 10.34375 -67.84375 L 19.75 -67.84375 Z M 19.75 0 "/></g></g></g><g fill="#ffffff" fill-opacity="1"><g transform="translate(211.62256, 290.999981)"><g><path d="M 11.921875 -19 L 11.921875 -60.078125 L 2.515625 -60.078125 L 2.515625 -67.84375 L 11.921875 -67.84375 L 11.921875 -82.515625 L 21.3125 -82.515625 L 21.3125 -67.84375 L 33.859375 -67.84375 L 33.859375 -60.078125 L 21.3125 -60.078125 L 21.3125 -19 C 21.3125 -14.488281 21.503906 -11.769531 21.890625 -10.84375 C 22.847656 -8.550781 24.644531 -7.40625 27.28125 -7.40625 C 29.445312 -7.40625 31.828125 -8.070312 34.421875 -9.40625 L 38.0625 -1.625 C 34.050781 0.125 30.25 1 26.65625 1 C 23.09375 1 20.085938 0.144531 17.640625 -1.5625 C 15.203125 -3.28125 13.523438 -5.726562 12.609375 -8.90625 C 12.148438 -10.488281 11.921875 -13.851562 11.921875 -19 Z M 11.921875 -19 "/></g></g></g></svg>