<?xml version="1.0" encoding="UTF-8" standalone="no"?>
<svg
   width="512"
   zoomAndPan="magnify"
   viewBox="0 0 384 383.99999"
   height="512"
   preserveAspectRatio="xMidYMid"
   version="1.0"
   id="svg82"
   sodipodi:docname="librekit-logo-bg.svg"
   inkscape:version="1.2.2 (b0a8486541, 2022-12-01)"
   xmlns:inkscape="http://www.inkscape.org/namespaces/inkscape"
   xmlns:sodipodi="http://sodipodi.sourceforge.net/DTD/sodipodi-0.dtd"
   xmlns="http://www.w3.org/2000/svg"
   xmlns:svg="http://www.w3.org/2000/svg">
  <sodipodi:namedview
     id="namedview84"
     pagecolor="#ffffff"
     bordercolor="#000000"
     borderopacity="0.25"
     inkscape:showpageshadow="2"
     inkscape:pageopacity="0.0"
     inkscape:pagecheckerboard="0"
     inkscape:deskcolor="#d1d1d1"
     showgrid="false"
     inkscape:zoom="1.1090955"
     inkscape:cx="128.03226"
     inkscape:cy="274.99887"
     inkscape:window-width="1920"
     inkscape:window-height="1011"
     inkscape:window-x="0"
     inkscape:window-y="32"
     inkscape:window-maximized="1"
     inkscape:current-layer="svg82" />
  <defs
     id="defs10">
    <g
       id="g2" />
    <clipPath
       id="09da519471">
      <path
         d="m 97,187.14062 h 181 v 92.73829 H 97 Z m 0,0"
         clip-rule="nonzero"
         id="path4" />
    </clipPath>
    <clipPath
       id="51ee878ee9">
      <path
         d="M 99.972656,187.5 H 275.02734 c 0.77344,0 1.51953,0.30859 2.06641,0.85547 0.55078,0.55078 0.85547,1.29297 0.85547,2.07031 v 86.53125 c 0,0.77344 -0.30469,1.51953 -0.85547,2.06641 -0.54688,0.55078 -1.29297,0.85547 -2.06641,0.85547 H 99.972656 c -0.773437,0 -1.519531,-0.30469 -2.066406,-0.85547 -0.550781,-0.54688 -0.859375,-1.29297 -0.859375,-2.06641 v -86.53125 c 0,-0.77734 0.308594,-1.51953 0.859375,-2.07031 0.546875,-0.54688 1.292969,-0.85547 2.066406,-0.85547 z m 0,0"
         clip-rule="nonzero"
         id="path7" />
    </clipPath>
  </defs>
  <rect
     style="display:inline;fill:#1f2937;fill-opacity:1;stroke:none;stroke-width:9.64398"
     id="rect365"
     width="384"
     height="384"
     x="4.4408921e-16"
     y="4.4408921e-16" />
  <g
     clip-path="url(#09da519471)"
     id="g16"
     transform="matrix(0.9999988,0,0,1.0000011,4.5568653,1.2556431)">
    <g
       clip-path="url(#51ee878ee9)"
       id="g14">
      <path
         fill="#4e274e"
         d="M 97.046875,187.5 H 277.83984 v 92.37891 H 97.046875 Z m 0,0"
         fill-opacity="1"
         fill-rule="nonzero"
         id="path12" />
    </g>
  </g>
  <g
     fill="#ffffff"
     fill-opacity="1"
     id="g24"
     transform="matrix(0.9999988,0,0,1.0000011,4.5568653,1.2556431)">
    <g
       transform="translate(96.397945,174.74999)"
       id="g22">
      <g
         id="g20">
        <path
           d="m 19.65625,-6.0625 1.171875,6.265625 c -1.304687,0.382813 -2.804687,0.578125 -4.5,0.578125 -2.679687,0 -4.890625,-1.070312 -6.640625,-3.21875 -1.242188,-1.5 -1.859375,-3.800781 -1.859375,-6.90625 V -73.140625 H 15.15625 V -9.34375 c 0,1.46875 0.175781,2.433594 0.53125,2.890625 0.363281,0.460937 0.9375,0.6875 1.71875,0.6875 0.71875,0 1.46875,-0.097656 2.25,-0.296875 z m 0,0"
           id="path18" />
      </g>
    </g>
  </g>
  <g
     fill="#ffffff"
     fill-opacity="1"
     id="g32"
     transform="matrix(0.9999988,0,0,1.0000011,4.5568653,1.2556431)">
    <g
       transform="translate(118.85631,174.74999)"
       id="g30">
      <g
         id="g28">
        <path
           d="m 8.4375,-68.859375 c 0.863281,-0.863281 1.960938,-1.296875 3.296875,-1.296875 1.332031,0 2.429687,0.433594 3.296875,1.296875 0.863281,0.867187 1.296875,1.964844 1.296875,3.296875 0,1.335938 -0.433594,2.433594 -1.296875,3.296875 -0.867188,0.867187 -1.964844,1.296875 -3.296875,1.296875 -1.335937,0 -2.433594,-0.429688 -3.296875,-1.296875 -0.867188,-0.863281 -1.296875,-1.960937 -1.296875,-3.296875 0,-1.332031 0.429687,-2.429688 1.296875,-3.296875 z M 15.40625,0 H 8.0625 v -52.890625 h 7.34375 z m 0,0"
           id="path26" />
      </g>
    </g>
  </g>
  <g
     fill="#ffffff"
     fill-opacity="1"
     id="g40"
     transform="matrix(0.9999988,0,0,1.0000011,4.5568653,1.2556431)">
    <g
       transform="translate(141.02135,174.74999)"
       id="g38">
      <g
         id="g36">
        <path
           d="m 29.09375,-53.6875 c 3.320312,0 6.332031,0.71875 9.03125,2.15625 2.707031,1.4375 4.828125,3.328125 6.359375,5.671875 1.632813,2.511719 2.695313,5.210937 3.1875,8.09375 0.488281,2.886719 0.734375,6.664063 0.734375,11.328125 0,4.65625 -0.246094,8.429688 -0.734375,11.3125 -0.492187,2.886719 -1.554687,5.578125 -3.1875,8.078125 -1.53125,2.355469 -3.652344,4.25 -6.359375,5.6875 C 35.425781,0.0664062 32.414062,0.78125 29.09375,0.78125 23.644531,0.78125 19,-1.351562 15.15625,-5.625 V 0 H 7.828125 V -73.140625 H 15.15625 V -47.28125 C 19,-51.550781 23.644531,-53.6875 29.09375,-53.6875 Z m 9.046875,11.34375 c -2.324219,-3.1875 -5.667969,-4.78125 -10.03125,-4.78125 -4.367187,0 -7.703125,1.59375 -10.015625,4.78125 -1.242188,1.699219 -2.042969,3.757812 -2.40625,6.171875 -0.355469,2.40625 -0.53125,5.648437 -0.53125,9.71875 0,4.074219 0.175781,7.320313 0.53125,9.734375 0.363281,2.40625 1.164062,4.460938 2.40625,6.15625 2.3125,3.199219 5.648438,4.796875 10.015625,4.796875 4.363281,0 7.707031,-1.597656 10.03125,-4.796875 1.226563,-1.695312 2.019531,-3.75 2.375,-6.15625 0.363281,-2.414062 0.546875,-5.660156 0.546875,-9.734375 0,-4.070313 -0.183594,-7.3125 -0.546875,-9.71875 -0.355469,-2.414063 -1.148437,-4.472656 -2.375,-6.171875 z m 0,0"
           id="path34" />
      </g>
    </g>
  </g>
  <g
     fill="#ffffff"
     fill-opacity="1"
     id="g48"
     transform="matrix(0.9999988,0,0,1.0000011,4.5568653,1.2556431)">
    <g
       transform="translate(194.23099,174.74999)"
       id="g46">
      <g
         id="g44">
        <path
           d="m 15.15625,-47.328125 c 3.550781,-4.238281 7.707031,-6.359375 12.46875,-6.359375 1.332031,0 2.832031,0.183594 4.5,0.546875 l -1.078125,6.453125 c -2.054687,-0.289062 -3.523437,-0.4375 -4.40625,-0.4375 -2.480469,0 -4.632813,0.589844 -6.453125,1.765625 -1.824219,1.167969 -3.140625,2.746094 -3.953125,4.734375 -0.71875,1.730469 -1.078125,4.792969 -1.078125,9.1875 V 0 H 7.828125 v -52.890625 h 7.328125 z m 0,0"
           id="path42" />
      </g>
    </g>
  </g>
  <g
     fill="#ffffff"
     fill-opacity="1"
     id="g56"
     transform="matrix(0.9999988,0,0,1.0000011,4.5568653,1.2556431)">
    <g
       transform="translate(227.00497,174.74999)"
       id="g54">
      <g
         id="g52">
        <path
           d="m 26.890625,0.78125 c -3.78125,0 -7.125,-0.7109375 -10.03125,-2.125 -2.898437,-1.414062 -5.195313,-3.363281 -6.890625,-5.84375 -1.199219,-1.726562 -2.101562,-3.78125 -2.703125,-6.15625 -0.605469,-2.382812 -0.949219,-4.398438 -1.03125,-6.046875 -0.085937,-1.644531 -0.125,-4 -0.125,-7.0625 0,-2.507813 0.023437,-4.40625 0.078125,-5.6875 0.050781,-1.289063 0.210938,-2.851563 0.484375,-4.6875 0.28125,-1.84375 0.695313,-3.515625 1.25,-5.015625 1.363281,-3.59375 3.648437,-6.460938 6.859375,-8.609375 3.21875,-2.15625 6.925781,-3.234375 11.125,-3.234375 4.144531,0 7.835938,1.089844 11.078125,3.265625 3.238281,2.167969 5.5625,5.042969 6.96875,8.625 0.8125,2.054687 1.304687,4.101563 1.484375,6.140625 0.1875,2.03125 0.28125,5.085938 0.28125,9.15625 v 1.609375 H 13.4375 c 0,2.125 0.03125,3.835937 0.09375,5.125 0.07031,1.28125 0.328125,2.828125 0.765625,4.640625 0.4375,1.804688 1.082031,3.308594 1.9375,4.515625 2.25,3.230469 5.800781,4.84375 10.65625,4.84375 4.332031,0 8.992187,-1.191406 13.984375,-3.578125 l 2.78125,6.0625 c -5.773438,2.710938 -11.359375,4.0625 -16.765625,4.0625 z M 38.375,-30.953125 c -0.0625,-3.707031 -0.539062,-6.65625 -1.421875,-8.84375 -0.875,-2.25 -2.304687,-4.03125 -4.28125,-5.34375 -1.96875,-1.320313 -4.226563,-1.984375 -6.765625,-1.984375 -2.636719,0 -4.917969,0.664062 -6.84375,1.984375 -1.917969,1.3125 -3.304688,3.078125 -4.15625,5.296875 -0.875,2.28125 -1.34375,5.246094 -1.40625,8.890625 z m 0,0"
           id="path50" />
      </g>
    </g>
  </g>
  <g
     fill="#ffffff"
     fill-opacity="1"
     id="g64"
     transform="matrix(0.9999988,0,0,1.0000011,4.5568653,1.2556431)">
    <g
       transform="translate(136.80419,268.49998)"
       id="g62">
      <g
         id="g60">
        <path
           d="M 7.828125,-73.140625 H 15.15625 V -23.90625 L 36.625,-52.890625 h 8.59375 L 25.625,-26.75 45.71875,0 h -8.8125 l -15.890625,-21.65625 -5.859375,7.625 V 0 H 7.828125 Z m 0,0"
           id="path58" />
      </g>
    </g>
  </g>
  <g
     fill="#ffffff"
     fill-opacity="1"
     id="g72"
     transform="matrix(0.9999988,0,0,1.0000011,4.5568653,1.2556431)">
    <g
       transform="translate(184.14714,268.49998)"
       id="g70">
      <g
         id="g68">
        <path
           d="m 8.4375,-68.859375 c 0.863281,-0.863281 1.960938,-1.296875 3.296875,-1.296875 1.332031,0 2.429687,0.433594 3.296875,1.296875 0.863281,0.867187 1.296875,1.964844 1.296875,3.296875 0,1.335938 -0.433594,2.433594 -1.296875,3.296875 -0.867188,0.867187 -1.964844,1.296875 -3.296875,1.296875 -1.335937,0 -2.433594,-0.429688 -3.296875,-1.296875 -0.867188,-0.863281 -1.296875,-1.960937 -1.296875,-3.296875 0,-1.332031 0.429687,-2.429688 1.296875,-3.296875 z M 15.40625,0 H 8.0625 v -52.890625 h 7.34375 z m 0,0"
           id="path66" />
      </g>
    </g>
  </g>
  <g
     fill="#ffffff"
     fill-opacity="1"
     id="g80"
     transform="matrix(0.9999988,0,0,1.0000011,4.5568653,1.2556431)">
    <g
       transform="translate(206.31217,268.49998)"
       id="g78">
      <g
         id="g76">
        <path
           d="M 9.28125,-14.8125 V -46.828125 H 1.953125 v -6.0625 H 9.28125 V -64.34375 H 16.625 v 11.453125 h 9.78125 v 6.0625 H 16.625 V -14.8125 c 0,3.523438 0.144531,5.640625 0.4375,6.359375 0.75,1.792969 2.148438,2.6875 4.203125,2.6875 1.695313,0 3.554687,-0.519531 5.578125,-1.5625 l 2.828125,6.0625 c -3.125,1.3632812 -6.089844,2.046875 -8.890625,2.046875 -2.773438,0 -5.109375,-0.667969 -7.015625,-2 -1.90625,-1.34375 -3.21875,-3.25 -3.9375,-5.71875 -0.367187,-1.238281 -0.546875,-3.863281 -0.546875,-7.875 z m 0,0"
           id="path74" />
      </g>
    </g>
  </g>
</svg>
