<svg xmlns="http://www.w3.org/2000/svg" xmlns:xlink="http://www.w3.org/1999/xlink" width="700" zoomAndPan="magnify" viewBox="0 0 525 299.999988" height="400" preserveAspectRatio="xMidYMid meet" version="1.0"><defs><g/><clipPath id="ee72433c44"><path d="M 190 150 L 335 150 L 335 223.90625 L 190 223.90625 Z M 190 150 " clip-rule="nonzero"/></clipPath><clipPath id="9cd9a24040"><path d="M 192.476562 150 L 332.523438 150 C 333.140625 150 333.738281 150.246094 334.175781 150.683594 C 334.613281 151.125 334.859375 151.71875 334.859375 152.339844 L 334.859375 221.566406 C 334.859375 222.183594 334.613281 222.78125 334.175781 223.21875 C 333.738281 223.65625 333.140625 223.90625 332.523438 223.90625 L 192.476562 223.90625 C 191.859375 223.90625 191.261719 223.65625 190.824219 223.21875 C 190.386719 222.78125 190.140625 222.183594 190.140625 221.566406 L 190.140625 152.339844 C 190.140625 151.71875 190.386719 151.125 190.824219 150.683594 C 191.261719 150.246094 191.859375 150 192.476562 150 Z M 192.476562 150 " clip-rule="nonzero"/></clipPath></defs><g clip-path="url(#ee72433c44)"><g clip-path="url(#9cd9a24040)"><path fill="#4e274e" d="M 190.140625 150 L 334.773438 150 L 334.773438 223.90625 L 190.140625 223.90625 Z M 190.140625 150 " fill-opacity="1" fill-rule="nonzero"/></g></g><g fill="#ffffff" fill-opacity="1"><g transform="translate(189.61835, 139.799989)"><g><path d="M 15.71875 -4.84375 L 16.65625 0.15625 C 15.613281 0.46875 14.414062 0.625 13.0625 0.625 C 10.925781 0.625 9.15625 -0.234375 7.75 -1.953125 C 6.757812 -3.148438 6.265625 -4.988281 6.265625 -7.46875 L 6.265625 -58.515625 L 12.125 -58.515625 L 12.125 -7.46875 C 12.125 -6.289062 12.265625 -5.519531 12.546875 -5.15625 C 12.835938 -4.789062 13.296875 -4.609375 13.921875 -4.609375 C 14.492188 -4.609375 15.09375 -4.6875 15.71875 -4.84375 Z M 15.71875 -4.84375 "/></g></g></g><g fill="#ffffff" fill-opacity="1"><g transform="translate(207.585045, 139.799989)"><g><path d="M 6.734375 -55.09375 C 7.429688 -55.78125 8.3125 -56.125 9.375 -56.125 C 10.445312 -56.125 11.328125 -55.78125 12.015625 -55.09375 C 12.710938 -54.40625 13.0625 -53.523438 13.0625 -52.453125 C 13.0625 -51.378906 12.710938 -50.5 12.015625 -49.8125 C 11.328125 -49.125 10.445312 -48.78125 9.375 -48.78125 C 8.3125 -48.78125 7.429688 -49.125 6.734375 -49.8125 C 6.046875 -50.5 5.703125 -51.378906 5.703125 -52.453125 C 5.703125 -53.523438 6.046875 -54.40625 6.734375 -55.09375 Z M 12.328125 0 L 6.453125 0 L 6.453125 -42.328125 L 12.328125 -42.328125 Z M 12.328125 0 "/></g></g></g><g fill="#ffffff" fill-opacity="1"><g transform="translate(225.317072, 139.799989)"><g><path d="M 23.28125 -42.953125 C 25.9375 -42.953125 28.34375 -42.375 30.5 -41.21875 C 32.664062 -40.070312 34.363281 -38.5625 35.59375 -36.6875 C 36.894531 -34.675781 37.738281 -32.515625 38.125 -30.203125 C 38.519531 -27.898438 38.71875 -24.882812 38.71875 -21.15625 C 38.71875 -17.425781 38.519531 -14.40625 38.125 -12.09375 C 37.738281 -9.789062 36.894531 -7.632812 35.59375 -5.625 C 34.363281 -3.75 32.664062 -2.238281 30.5 -1.09375 C 28.34375 0.0507812 25.9375 0.625 23.28125 0.625 C 18.914062 0.625 15.195312 -1.082031 12.125 -4.5 L 12.125 0 L 6.265625 0 L 6.265625 -58.515625 L 12.125 -58.515625 L 12.125 -37.828125 C 15.195312 -41.242188 18.914062 -42.953125 23.28125 -42.953125 Z M 30.515625 -33.875 C 28.660156 -36.425781 25.984375 -37.703125 22.484375 -37.703125 C 18.992188 -37.703125 16.320312 -36.425781 14.46875 -33.875 C 13.476562 -32.519531 12.835938 -30.875 12.546875 -28.9375 C 12.265625 -27.007812 12.125 -24.414062 12.125 -21.15625 C 12.125 -17.894531 12.265625 -15.300781 12.546875 -13.375 C 12.835938 -11.445312 13.476562 -9.804688 14.46875 -8.453125 C 16.320312 -5.890625 18.992188 -4.609375 22.484375 -4.609375 C 25.984375 -4.609375 28.660156 -5.890625 30.515625 -8.453125 C 31.503906 -9.804688 32.140625 -11.445312 32.421875 -13.375 C 32.710938 -15.300781 32.859375 -17.894531 32.859375 -21.15625 C 32.859375 -24.414062 32.710938 -27.007812 32.421875 -28.9375 C 32.140625 -30.875 31.503906 -32.519531 30.515625 -33.875 Z M 30.515625 -33.875 "/></g></g></g><g fill="#ffffff" fill-opacity="1"><g transform="translate(267.884788, 139.799989)"><g><path d="M 12.125 -37.859375 C 14.96875 -41.253906 18.289062 -42.953125 22.09375 -42.953125 C 23.164062 -42.953125 24.367188 -42.804688 25.703125 -42.515625 L 24.84375 -37.359375 C 23.195312 -37.585938 22.019531 -37.703125 21.3125 -37.703125 C 19.332031 -37.703125 17.613281 -37.234375 16.15625 -36.296875 C 14.695312 -35.359375 13.640625 -34.09375 12.984375 -32.5 C 12.410156 -31.125 12.125 -28.675781 12.125 -25.15625 L 12.125 0 L 6.265625 0 L 6.265625 -42.328125 L 12.125 -42.328125 Z M 12.125 -37.859375 "/></g></g></g><g fill="#ffffff" fill-opacity="1"><g transform="translate(294.103969, 139.799989)"><g><path d="M 21.515625 0.625 C 18.484375 0.625 15.804688 0.0546875 13.484375 -1.078125 C 11.171875 -2.210938 9.335938 -3.769531 7.984375 -5.75 C 7.015625 -7.132812 6.285156 -8.773438 5.796875 -10.671875 C 5.316406 -12.578125 5.046875 -14.1875 4.984375 -15.5 C 4.921875 -16.820312 4.890625 -18.707031 4.890625 -21.15625 C 4.890625 -23.164062 4.90625 -24.6875 4.9375 -25.71875 C 4.976562 -26.75 5.109375 -28 5.328125 -29.46875 C 5.554688 -30.945312 5.894531 -32.285156 6.34375 -33.484375 C 7.4375 -36.347656 9.265625 -38.640625 11.828125 -40.359375 C 14.398438 -42.085938 17.367188 -42.953125 20.734375 -42.953125 C 24.046875 -42.953125 27 -42.082031 29.59375 -40.34375 C 32.1875 -38.613281 34.046875 -36.3125 35.171875 -33.4375 C 35.816406 -31.800781 36.210938 -30.164062 36.359375 -28.53125 C 36.503906 -26.90625 36.578125 -24.460938 36.578125 -21.203125 L 36.578125 -19.90625 L 10.75 -19.90625 C 10.75 -18.21875 10.773438 -16.859375 10.828125 -15.828125 C 10.878906 -14.796875 11.082031 -13.554688 11.4375 -12.109375 C 11.789062 -10.660156 12.304688 -9.453125 12.984375 -8.484375 C 14.785156 -5.898438 17.628906 -4.609375 21.515625 -4.609375 C 24.984375 -4.609375 28.710938 -5.5625 32.703125 -7.46875 L 34.9375 -2.625 C 30.3125 -0.457031 25.835938 0.625 21.515625 0.625 Z M 30.703125 -24.765625 C 30.648438 -27.734375 30.273438 -30.09375 29.578125 -31.84375 C 28.867188 -33.644531 27.722656 -35.070312 26.140625 -36.125 C 24.566406 -37.175781 22.765625 -37.703125 20.734375 -37.703125 C 18.617188 -37.703125 16.789062 -37.175781 15.25 -36.125 C 13.71875 -35.070312 12.613281 -33.65625 11.9375 -31.875 C 11.226562 -30.050781 10.847656 -27.679688 10.796875 -24.765625 Z M 30.703125 -24.765625 "/></g></g></g><g fill="#ffffff" fill-opacity="1"><g transform="translate(221.943348, 214.799982)"><g><path d="M 6.265625 -58.515625 L 12.125 -58.515625 L 12.125 -19.125 L 29.296875 -42.328125 L 36.1875 -42.328125 L 20.5 -21.390625 L 36.578125 0 L 29.53125 0 L 16.8125 -17.328125 L 12.125 -11.21875 L 12.125 0 L 6.265625 0 Z M 6.265625 -58.515625 "/></g></g></g><g fill="#ffffff" fill-opacity="1"><g transform="translate(259.817706, 214.799982)"><g><path d="M 6.734375 -55.09375 C 7.429688 -55.78125 8.3125 -56.125 9.375 -56.125 C 10.445312 -56.125 11.328125 -55.78125 12.015625 -55.09375 C 12.710938 -54.40625 13.0625 -53.523438 13.0625 -52.453125 C 13.0625 -51.378906 12.710938 -50.5 12.015625 -49.8125 C 11.328125 -49.125 10.445312 -48.78125 9.375 -48.78125 C 8.3125 -48.78125 7.429688 -49.125 6.734375 -49.8125 C 6.046875 -50.5 5.703125 -51.378906 5.703125 -52.453125 C 5.703125 -53.523438 6.046875 -54.40625 6.734375 -55.09375 Z M 12.328125 0 L 6.453125 0 L 6.453125 -42.328125 L 12.328125 -42.328125 Z M 12.328125 0 "/></g></g></g><g fill="#ffffff" fill-opacity="1"><g transform="translate(277.549732, 214.799982)"><g><path d="M 7.4375 -11.859375 L 7.4375 -37.46875 L 1.5625 -37.46875 L 1.5625 -42.328125 L 7.4375 -42.328125 L 7.4375 -51.46875 L 13.296875 -51.46875 L 13.296875 -42.328125 L 21.125 -42.328125 L 21.125 -37.46875 L 13.296875 -37.46875 L 13.296875 -11.859375 C 13.296875 -9.035156 13.414062 -7.335938 13.65625 -6.765625 C 14.25 -5.328125 15.367188 -4.609375 17.015625 -4.609375 C 18.367188 -4.609375 19.851562 -5.03125 21.46875 -5.875 L 23.75 -1.015625 C 21.238281 0.078125 18.863281 0.625 16.625 0.625 C 14.40625 0.625 12.53125 0.09375 11 -0.96875 C 9.476562 -2.039062 8.429688 -3.566406 7.859375 -5.546875 C 7.578125 -6.546875 7.4375 -8.648438 7.4375 -11.859375 Z M 7.4375 -11.859375 "/></g></g></g></svg>